<?xml version="1.0" standalone="no"?>
<!DOCTYPE svg PUBLIC "-//W3C//DTD SVG 20010904//EN"
 "http://www.w3.org/TR/2001/REC-SVG-20010904/DTD/svg10.dtd">
<svg version="1.0" xmlns="http://www.w3.org/2000/svg"
 width="225.000000pt" height="225.000000pt" viewBox="0 0 225.000000 225.000000"
 preserveAspectRatio="xMidYMid meet">

<g transform="translate(0.000000,225.000000) scale(0.100000,-0.100000)"
fill="#000000" stroke="none">
<path d="M940 2045 c-304 -68 -540 -258 -670 -538 -137 -296 -105 -653 82
-925 87 -126 244 -255 392 -322 199 -90 488 -104 706 -33 289 94 517 339 602
650 31 113 31 373 0 486 -91 330 -329 574 -652 667 -99 29 -361 37 -460 15z
m322 -306 c23 -14 54 -41 67 -62 l24 -37 88 0 c98 0 119 -11 119 -60 0 -25 7
-32 43 -48 23 -10 57 -36 76 -57 26 -30 44 -40 75 -45 l41 -5 3 -245 c1 -135
0 -255 -3 -267 -4 -18 -13 -23 -35 -23 l-30 0 0 -95 c0 -136 -32 -199 -122
-246 -35 -18 -64 -19 -468 -19 -470 0 -459 -1 -523 59 -48 44 -67 92 -67 169
0 104 -8 132 -36 132 -17 0 -27 7 -32 23 -4 12 -5 132 -2 267 l5 244 43 9 c31
6 53 19 78 47 20 21 55 46 80 56 39 15 44 20 44 48 0 49 14 56 116 56 l91 0
26 39 c16 24 45 49 79 66 45 23 62 26 115 22 39 -3 77 -13 105 -28z"/>
<path d="M733 1414 c-76 -28 -143 -123 -143 -204 0 -74 52 -155 121 -190 52
-27 146 -27 198 0 117 59 155 211 77 313 -60 79 -165 113 -253 81z m128 -119
c82 -43 48 -177 -44 -177 -47 0 -76 18 -92 56 -37 87 51 165 136 121z"/>
<path d="M1400 1410 c-77 -36 -110 -78 -129 -160 -19 -85 31 -190 109 -230 52
-26 138 -27 189 -1 128 66 159 226 64 332 -45 50 -76 66 -139 74 -38 4 -59 1
-94 -15z m136 -134 c42 -42 45 -82 8 -125 -21 -26 -33 -31 -69 -31 -36 0 -48
5 -69 31 -41 48 -29 115 25 145 40 22 69 16 105 -20z"/>
<path d="M950 875 c0 -25 29 -88 53 -114 28 -30 93 -61 132 -61 102 0 205 85
205 170 0 19 -6 20 -195 20 -168 0 -195 -2 -195 -15z"/>
</g>
</svg>
